HIERARCHY
ROOT Hips
{
	OFFSET 54.586498 -23.549816 94.078590
	CHANNELS 6 Xposition Yposition Zposition Xrotation Yrotation Zrotation
	JOINT spine
	{
		OFFSET 0.000000 -0.429888 7.475601
		CHANNELS 3 Xrotation Yrotation Zrotation
		JOINT spine1
		{
			OFFSET 0.000000 -0.000002 9.923012
			CHANNELS 3 Xrotation Yrotation Zrotation
			JOINT spine2
			{
				OFFSET 0.000000 0.000000 9.508041
				CHANNELS 3 Xrotation Yrotation Zrotation
				JOINT Neck
				{
					OFFSET 0.000000 -1.163843 24.411102
					CHANNELS 3 Xrotation Yrotation Zrotation
					JOINT Head
					{
						OFFSET 0.000000 -0.000002 7.375229
						CHANNELS 3 Xrotation Yrotation Zrotation
						End Site
						{
							OFFSET 0.000000 5.887407 17.852203
						}
					}
				}
				JOINT RightShoulder
				{
					OFFSET -4.003559 0.557467 10.267914
					CHANNELS 3 Xrotation Yrotation Zrotation
					JOINT RightArm
					{
						OFFSET 0.000000 -0.000002 13.467300
						CHANNELS 3 Xrotation Yrotation Zrotation
						JOINT RightArmRoll
						{
							OFFSET 0.000000 -0.000002 6.798584
							CHANNELS 3 Xrotation Yrotation Zrotation
							JOINT RightForeArm
							{
								OFFSET 0.000000 -0.000004 19.801804
								CHANNELS 3 Xrotation Yrotation Zrotation
								JOINT RightForeArmRoll
								{
									OFFSET 0.000000 0.000000 7.629044
									CHANNELS 3 Xrotation Yrotation Zrotation
									JOINT RightHand
									{
										OFFSET 0.000000 -0.000004 15.309799
										CHANNELS 3 Xrotation Yrotation Zrotation
										End Site
										{
											OFFSET 0.000000 0.000000 0.100006
										}
									}
								}
							}
						}
					}
				}
				JOINT LeftShoulder
				{
					OFFSET 4.003559 0.557467 10.267914
					CHANNELS 3 Xrotation Yrotation Zrotation
					JOINT LeftArm
					{
						OFFSET 0.000000 -0.000002 13.467300
						CHANNELS 3 Xrotation Yrotation Zrotation
						JOINT LeftArmRoll
						{
							OFFSET 0.000000 -0.000002 6.798569
							CHANNELS 3 Xrotation Yrotation Zrotation
							JOINT LeftForeArm
							{
								OFFSET 0.000000 -0.000004 19.801804
								CHANNELS 3 Xrotation Yrotation Zrotation
								JOINT LeftForeArmRoll
								{
									OFFSET 0.000000 0.000000 7.629044
									CHANNELS 3 Xrotation Yrotation Zrotation
									JOINT LeftHand
									{
										OFFSET 0.000000 -0.000004 15.309799
										CHANNELS 3 Xrotation Yrotation Zrotation
										End Site
										{
											OFFSET 0.000000 0.000000 0.100006
										}
									}
								}
							}
						}
					}
				}
			}
		}
	}
	JOINT RightUpLeg
	{
		OFFSET -6.626091 1.019270 -1.215042
		CHANNELS 3 Xrotation Yrotation Zrotation
		JOINT RightUpLegRoll
		{
			OFFSET 0.000000 -0.000002 17.951698
			CHANNELS 3 Xrotation Yrotation Zrotation
			JOINT RightLeg
			{
				OFFSET 0.000000 0.000002 -22.230400
				CHANNELS 3 Xrotation Yrotation Zrotation
				JOINT RightLegRoll
				{
					OFFSET 0.000000 -0.000002 22.303200
					CHANNELS 3 Xrotation Yrotation Zrotation
					JOINT RightFoot
					{
						OFFSET 0.000000 -0.000004 18.563599
						CHANNELS 3 Xrotation Yrotation Zrotation
						JOINT RightToeBase
						{
							OFFSET 0.000000 -0.000002 15.518295
							CHANNELS 3 Xrotation Yrotation Zrotation
							End Site
							{
								OFFSET 0.006577 0.866261 7.515381
							}
						}
					}
				}
			}
		}
	}
	JOINT LeftUpLeg
	{
		OFFSET 6.626091 1.019270 -1.215042
		CHANNELS 3 Xrotation Yrotation Zrotation
		JOINT LeftUpLegRoll
		{
			OFFSET 0.000000 -0.000002 17.951797
			CHANNELS 3 Xrotation Yrotation Zrotation
			JOINT LeftLeg
			{
				OFFSET 0.000000 -0.000004 22.230309
				CHANNELS 3 Xrotation Yrotation Zrotation
				JOINT LeftLegRoll
				{
					OFFSET 0.000000 -0.000004 22.509308
					CHANNELS 3 Xrotation Yrotation Zrotation
					JOINT LeftFoot
					{
						OFFSET 0.000000 -0.000004 18.357498
						CHANNELS 3 Xrotation Yrotation Zrotation
						JOINT LeftToeBase
						{
							OFFSET 0.000000 -0.000002 15.518295
							CHANNELS 3 Xrotation Yrotation Zrotation
							End Site
							{
								OFFSET -0.029476 0.866261 7.515381
							}
						}
					}
				}
			}
		}
	}
}
MOTION
Frames: 8
Frame Time: 0.041667
54.385899 17.186436 55.839043 -5.224103 -7.635145 4.407067 -3.359865 1.662000 -0.543011 -2.723938 3.349129 -0.985828 -1.077829 3.337081 -1.025911 47.061728 8.224697 -2.063696 -17.044869 -8.874373 -0.342040 15.412581 -79.978633 13.750686 52.662767 -79.574347 72.223807 -0.000002 0.000001 -0.000002 7.110795 -8.950821 -0.367589 0.000004 -0.000008 -3.009939 -5.000241 -7.998881 0.000136 79.054030 85.611374 -76.957818 16.809912 70.467813 -49.803663 -0.000001 -0.000017 0.000023 0.010332 0.749575 1.021596 0.000001 -0.000004 3.075510 -5.000156 8.000009 -0.000013 -82.312105 -175.991463 6.795243 179.999964 0.000005 -1.851002 85.725192 7.758251 1.249491 -0.000007 0.000000 2.821090 66.696121 8.182226 -0.873950 28.947236 -7.484119 -2.024537 101.357186 -0.827718 162.637910 0.000010 -0.000004 -2.201079 -86.930010 -1.256922 2.892984 -0.000002 0.000005 -2.259340 64.640357 -9.590614 3.873912 27.561734 7.413970 1.231605 
54.400501 17.188744 55.835960 -5.213631 -7.618609 4.422474 -3.357790 1.653947 -0.543839 -2.718351 3.333073 -0.988965 -1.072252 3.320980 -1.028867 47.113450 8.355721 -2.097906 -17.068994 -8.987989 -0.345636 15.597459 -79.961441 13.946951 52.247327 -79.634125 71.856254 -0.000003 0.000001 -0.000003 7.077892 -8.935673 -0.371584 0.000009 -0.000008 -3.009939 -5.000236 -7.998881 0.000137 78.872088 85.645381 -76.766286 16.665151 70.537269 -49.625580 -0.000002 -0.000015 0.000026 0.006737 0.793430 1.008168 0.000002 -0.000004 3.070711 -5.000157 8.000008 -0.000014 -82.311764 -175.980603 6.807285 179.999964 0.000006 -1.851004 85.727945 7.750394 1.245815 -0.000008 0.000000 2.821480 66.712855 8.188375 -0.891226 28.942373 -7.484061 -2.022210 101.341320 -0.832306 162.652650 0.000011 -0.000004 -2.199890 -86.926902 -1.258034 2.891743 -0.000002 0.000004 -2.257940 64.621253 -9.583460 3.853250 27.566490 7.413964 1.234072 
54.392399 17.189335 55.838936 -5.201970 -7.603300 4.438194 -3.356079 1.646163 -0.544747 -2.713442 3.317544 -0.992277 -1.067346 3.305419 -1.031980 47.166476 8.488616 -2.133337 -17.095069 -9.104572 -0.349973 15.784702 -79.942563 14.146014 51.825881 -79.696307 71.483899 -0.000002 -0.000001 -0.000002 7.043548 -8.920195 -0.375699 0.000007 -0.000008 -3.009938 -5.000238 -7.998881 0.000135 78.719119 85.679573 -76.603577 16.507452 70.603816 -49.435714 -0.000002 -0.000016 0.000025 0.001392 0.837907 0.994289 0.000000 -0.000004 3.065730 -5.000157 8.000008 -0.000011 -82.312754 -175.969374 6.819004 179.999964 0.000005 -1.851005 85.730246 7.742856 1.242473 -0.000007 -0.000001 2.821920 66.730443 8.194799 -0.909407 28.937309 -7.483964 -2.019740 101.324053 -0.837972 162.665477 0.000010 -0.000004 -2.198731 -86.923863 -1.258809 2.890802 -0.000002 0.000006 -2.256530 64.602026 -9.576245 3.832496 27.571138 7.413965 1.236502 
54.397400 17.191936 55.833950 -5.189498 -7.588847 4.454129 -3.354621 1.638569 -0.545713 -2.709012 3.302414 -0.995688 -1.062921 3.290245 -1.035217 47.220626 8.622705 -2.169660 -17.122565 -9.223230 -0.354855 15.973113 -79.922338 14.346537 51.399393 -79.760128 71.107139 -0.000002 -0.000001 -0.000003 7.008181 -8.904482 -0.379899 0.000005 -0.000008 -3.009940 -5.000244 -7.998881 0.000137 78.586388 85.713895 -76.461003 16.340183 70.668224 -49.237259 0.000000 -0.000014 0.000026 -0.005182 0.882827 0.980117 0.000001 -0.000006 3.060640 -5.000157 8.000008 -0.000011 -82.314885 -175.957749 6.828617 179.999964 0.000005 -1.851999 85.732213 7.735580 1.239464 -0.000007 -0.000000 2.822400 66.748406 8.201397 -0.927985 28.932043 -7.483849 -2.017174 101.305953 -0.844132 162.678263 0.000010 -0.000004 -2.197580 -86.920946 -1.259347 2.890145 -0.000002 0.000006 -2.255130 64.582922 -9.569016 3.811753 27.575685 7.413971 1.238923 
54.394100 17.192039 55.837955 -5.176547 -7.574887 4.470197 -3.353311 1.631083 -0.546711 -2.704846 3.287491 -0.999162 -1.058769 3.275282 -1.038511 47.275499 8.757479 -2.206634 -17.150926 -9.343064 -0.360111 16.161928 -79.901336 14.547644 50.966766 -79.824503 70.724860 -0.000000 0.000000 -0.000001 6.972235 -8.888638 -0.384128 0.000005 -0.000008 -3.009940 -5.000238 -7.998881 0.000137 78.463772 85.748271 -76.328505 16.166933 70.731369 -49.033289 0.000000 -0.000016 0.000024 -0.012453 0.927997 0.965778 0.000000 -0.000004 3.055482 -5.000154 8.000009 -0.000009 -82.317529 -175.946001 6.838509 179.999964 0.000005 -1.852001 85.734023 7.728353 1.236572 -0.000007 -0.000001 2.822890 66.766725 8.208078 -0.946871 28.926674 -7.483712 -2.014566 101.287341 -0.850437 162.691746 0.000011 -0.000004 -2.196441 -86.918085 -1.259737 2.889390 -0.000002 0.000005 -2.253730 64.563702 -9.561765 3.791012 27.580331 7.413967 1.241319 
54.392300 17.192547 55.837639 -5.163485 -7.561046 4.486282 -3.352038 1.623620 -0.547717 -2.700749 3.272619 -1.002658 -1.054678 3.260369 -1.041829 47.330718 8.892379 -2.243949 -17.179498 -9.463201 -0.365538 16.350100 -79.880012 14.748132 50.529746 -79.888693 70.338278 -0.000001 -0.000000 -0.000002 6.936145 -8.872761 -0.388357 0.000007 -0.000009 -3.009941 -5.000244 -7.998882 0.000137 78.343069 85.782661 -76.197891 15.991061 70.793893 -48.826775 -0.000001 -0.000015 0.000025 -0.019903 0.973237 0.951403 0.000000 -0.000003 3.050300 -5.000157 8.000009 -0.000012 -82.320288 -175.934308 6.848890 179.999964 0.000006 -1.852002 85.735786 7.721197 1.233584 -0.000007 0.000000 2.823400 66.785153 8.214750 -0.965873 28.921309 -7.483576 -2.011939 101.268490 -0.857095 162.703862 0.000010 -0.000004 -2.195311 -86.915305 -1.260077 2.888732 -0.000002 0.000006 -2.252339 64.544461 -9.554455 3.770082 27.584885 7.413972 1.243721 
54.391499 17.195339 55.839142 -5.150655 -7.546942 4.502294 -3.350697 1.616115 -0.548706 -2.696521 3.257637 -1.006114 -1.050455 3.245356 -1.045103 47.385974 9.026825 -2.281316 -17.207840 -9.582760 -0.370982 16.536977 -79.858920 14.947241 50.088762 -79.951804 69.947585 -0.000001 0.000000 -0.000003 6.900345 -8.856944 -0.392525 0.000006 -0.000008 -3.009939 -5.000242 -7.998881 0.000135 78.213514 85.816990 -76.058466 15.816201 70.856799 -48.621156 -0.000001 -0.000015 0.000027 -0.027003 1.018351 0.937127 0.000001 -0.000004 3.045163 -5.000154 8.000007 -0.000011 -82.322808 -175.922669 6.859095 179.999964 0.000005 -1.852998 85.737623 7.713976 1.230695 -0.000007 0.000001 2.823890 66.803369 8.221396 -0.984766 28.915941 -7.483457 -2.009330 101.250041 -0.863558 162.716266 0.000011 -0.000004 -2.194172 -86.912361 -1.260532 2.888072 -0.000002 0.000005 -2.250940 64.525262 -9.547215 3.749343 27.589530 7.413965 1.246123 
54.391396 17.192440 55.840248 -5.138424 -7.532224 4.518145 -3.349172 1.608460 -0.549653 -2.691953 3.242386 -1.009491 -1.045902 3.230063 -1.048290 47.440961 9.160245 -2.318429 -17.235281 -9.700786 -0.376185 16.721640 -79.838518 15.143906 49.644171 -80.012879 69.552923 -0.000001 -0.000002 -0.000003 6.865293 -8.841302 -0.396620 0.000006 -0.000009 -3.009940 -5.000242 -7.998881 0.000136 78.063946 85.851141 -75.899097 15.645754 70.920818 -48.419238 -0.000001 -0.000015 0.000028 -0.033227 1.063159 0.923086 0.000001 -0.000003 3.040102 -5.000158 8.000008 -0.000011 -82.324605 -175.911140 6.869301 179.999964 0.000005 -1.852997 85.739665 7.706635 1.227587 -0.000008 0.000000 2.824361 66.821325 8.227889 -1.003271 28.910773 -7.483342 -2.006798 101.232153 -0.869446 162.729899 0.000010 -0.000005 -2.193020 -86.909465 -1.261120 2.887220 -0.000002 0.000006 -2.249539 64.506041 -9.539917 3.728520 27.594183 7.413965 1.248544 
